<mxfile host="app.diagrams.net" modified="2022-11-17T08:12:49.860Z" agent="5.0 (Macintosh; Intel Mac OS X 10_15_7) AppleWebKit/605.1.15 (KHTML, like Gecko) Version/15.6.1 Safari/605.1.15" etag="m3tvvZOvh_bLGyijvEGo" version="20.5.3" type="github">
  <diagram id="DWPpAauYawfEJx_VbskS" name="Page-1">
    <mxGraphModel dx="1234" dy="765" grid="1" gridSize="10" guides="1" tooltips="1" connect="1" arrows="1" fold="1" page="1" pageScale="1" pageWidth="827" pageHeight="1169" math="0" shadow="0">
      <root>
        <mxCell id="0" />
        <mxCell id="1" parent="0" />
        <mxCell id="1-avdi1Zz3l1u-DdqibD-1" value="&lt;font style=&quot;font-size: 15px;&quot;&gt;&lt;b&gt;Package folder&lt;/b&gt;&lt;/font&gt;" style="verticalLabelPosition=bottom;html=1;verticalAlign=top;align=center;strokeColor=none;fillColor=#00BEF2;shape=mxgraph.azure.cloud_service_package_file;" vertex="1" parent="1">
          <mxGeometry x="170" y="140" width="90" height="90" as="geometry" />
        </mxCell>
        <mxCell id="1-avdi1Zz3l1u-DdqibD-4" value="" style="rounded=1;whiteSpace=wrap;html=1;fontSize=15;align=left;dashed=1;" vertex="1" parent="1">
          <mxGeometry x="120" y="270" width="200" height="310" as="geometry" />
        </mxCell>
        <mxCell id="1-avdi1Zz3l1u-DdqibD-5" value="metadata.yaml" style="sketch=0;aspect=fixed;pointerEvents=1;shadow=0;html=1;strokeColor=none;labelPosition=center;verticalLabelPosition=bottom;verticalAlign=top;align=center;fillColor=#000000;shape=mxgraph.azure.code_file;fontSize=15;strokeWidth=0;labelBackgroundColor=none;" vertex="1" parent="1">
          <mxGeometry x="191.5" y="280" width="47" height="50" as="geometry" />
        </mxCell>
        <mxCell id="1-avdi1Zz3l1u-DdqibD-7" value="" style="sketch=0;pointerEvents=1;shadow=0;dashed=0;html=1;strokeColor=none;fillColor=#505050;labelPosition=center;verticalLabelPosition=bottom;verticalAlign=top;outlineConnect=0;align=center;shape=mxgraph.office.concepts.folder;labelBackgroundColor=none;strokeWidth=0;fontSize=15;" vertex="1" parent="1">
          <mxGeometry x="191.5" y="380" width="50" height="45" as="geometry" />
        </mxCell>
        <mxCell id="1-avdi1Zz3l1u-DdqibD-27" value="" style="endArrow=classic;html=1;rounded=0;fontSize=12;dashed=1;strokeWidth=2;entryX=0.5;entryY=0;entryDx=0;entryDy=0;" edge="1" parent="1" target="1-avdi1Zz3l1u-DdqibD-28">
          <mxGeometry width="50" height="50" relative="1" as="geometry">
            <mxPoint x="219.5" y="450" as="sourcePoint" />
            <mxPoint x="220" y="480" as="targetPoint" />
            <Array as="points" />
          </mxGeometry>
        </mxCell>
        <mxCell id="1-avdi1Zz3l1u-DdqibD-28" value="" style="rounded=1;whiteSpace=wrap;html=1;labelBackgroundColor=none;strokeColor=#000000;strokeWidth=2;fontSize=12;fillColor=#E6E6E6;" vertex="1" parent="1">
          <mxGeometry x="130" y="490" width="180" height="60" as="geometry" />
        </mxCell>
        <mxCell id="1-avdi1Zz3l1u-DdqibD-29" value="external-api-specs.yaml&lt;br&gt;or&amp;nbsp;&lt;br&gt;external-api.specs.json" style="text;html=1;strokeColor=none;fillColor=none;align=center;verticalAlign=middle;whiteSpace=wrap;rounded=0;labelBackgroundColor=none;strokeWidth=2;fontSize=12;" vertex="1" parent="1">
          <mxGeometry x="140" y="500" width="160" height="30" as="geometry" />
        </mxCell>
        <mxCell id="1-avdi1Zz3l1u-DdqibD-30" value="&lt;font style=&quot;font-size: 15px;&quot;&gt;external-api-specs folder&lt;/font&gt;" style="text;html=1;strokeColor=none;fillColor=none;align=center;verticalAlign=middle;whiteSpace=wrap;rounded=0;labelBackgroundColor=none;strokeWidth=2;fontSize=12;" vertex="1" parent="1">
          <mxGeometry x="120" y="430" width="200" height="30" as="geometry" />
        </mxCell>
        <mxCell id="1-avdi1Zz3l1u-DdqibD-34" value="" style="shape=image;html=1;verticalAlign=top;verticalLabelPosition=bottom;labelBackgroundColor=#ffffff;imageAspect=0;aspect=fixed;image=https://cdn1.iconfinder.com/data/icons/hawcons/32/698719-icon-126-document-file-tgz-128.png;dashed=1;strokeColor=#000000;strokeWidth=2;fontSize=15;fillColor=#E6E6E6;" vertex="1" parent="1">
          <mxGeometry x="440" y="110" width="128" height="128" as="geometry" />
        </mxCell>
        <mxCell id="1-avdi1Zz3l1u-DdqibD-35" value="&lt;b&gt;&amp;nbsp; &amp;nbsp; &amp;nbsp; &amp;nbsp; &amp;nbsp; &amp;nbsp;Compress into .tgz&lt;/b&gt;" style="text;html=1;align=center;verticalAlign=middle;resizable=0;points=[];autosize=1;strokeColor=none;fillColor=none;fontSize=15;" vertex="1" parent="1">
          <mxGeometry x="380" y="235" width="200" height="30" as="geometry" />
        </mxCell>
        <mxCell id="1-avdi1Zz3l1u-DdqibD-36" value="" style="rounded=1;whiteSpace=wrap;html=1;fontSize=15;align=left;dashed=1;" vertex="1" parent="1">
          <mxGeometry x="414" y="270" width="216" height="310" as="geometry" />
        </mxCell>
        <mxCell id="1-avdi1Zz3l1u-DdqibD-38" value="" style="endArrow=classic;html=1;rounded=0;strokeWidth=4;fontSize=15;" edge="1" parent="1">
          <mxGeometry width="50" height="50" relative="1" as="geometry">
            <mxPoint x="300" y="180" as="sourcePoint" />
            <mxPoint x="430" y="180" as="targetPoint" />
          </mxGeometry>
        </mxCell>
        <mxCell id="1-avdi1Zz3l1u-DdqibD-40" value="Pack identity: &lt;b&gt;metadata.yaml&lt;/b&gt;" style="text;html=1;strokeColor=none;fillColor=none;align=center;verticalAlign=middle;whiteSpace=wrap;rounded=0;dashed=1;labelBackgroundColor=none;strokeWidth=2;fontSize=15;" vertex="1" parent="1">
          <mxGeometry x="416" y="300" width="214" height="30" as="geometry" />
        </mxCell>
        <mxCell id="1-avdi1Zz3l1u-DdqibD-42" value="1. &lt;b&gt;ID&lt;/b&gt;: Pack ID&lt;br&gt;&lt;br&gt;2. &lt;b&gt;Version:&lt;/b&gt; Pack version&lt;br&gt;&lt;br&gt;3. &lt;b&gt;Description&lt;/b&gt;: Pack description" style="text;html=1;strokeColor=none;fillColor=none;align=left;verticalAlign=middle;whiteSpace=wrap;rounded=0;dashed=1;labelBackgroundColor=none;strokeWidth=2;fontSize=15;" vertex="1" parent="1">
          <mxGeometry x="430" y="340" width="210" height="100" as="geometry" />
        </mxCell>
        <mxCell id="1-avdi1Zz3l1u-DdqibD-43" value="" style="shape=image;html=1;verticalAlign=top;verticalLabelPosition=bottom;labelBackgroundColor=#ffffff;imageAspect=0;aspect=fixed;image=https://cdn2.iconfinder.com/data/icons/essential-web-2/50/user-employee-id-badge-card-128.png;dashed=1;strokeColor=#000000;strokeWidth=0;fontSize=15;fillColor=#000000;" vertex="1" parent="1">
          <mxGeometry x="467" y="450" width="110" height="110" as="geometry" />
        </mxCell>
      </root>
    </mxGraphModel>
  </diagram>
</mxfile>
